<svg xmlns="http://www.w3.org/2000/svg" width="2048" height="1040" viewBox="0 0 2048 1040">
  <defs>
    <!-- Premium Typewriter Typography -->
    <style>
      @import url('https://fonts.googleapis.com/css2?family=Courier+Prime:wght@400;700&amp;display=swap');
      
      .mono {
        font-family: 'Courier Prime', 'Courier New', monospace;
        font-weight: 700;
        letter-spacing: 12px;
        fill: #f5f5f5;
      }
      .small {
        font-family: 'Courier Prime', 'Courier New', monospace;
        font-weight: 700;
        letter-spacing: 8px;
        fill: #8e8e8e;
      }
      .label {
        font-family: 'Courier Prime', 'Courier New', monospace;
        font-weight: 700;
        letter-spacing: 4px;
        fill: #e8e8e8;
      }
      .dim {
        font-family: 'Courier Prime', 'Courier New', monospace;
        font-weight: 700;
        letter-spacing: 7px;
        fill: #7c7c7c;
      }
      .tiny {
        font-family: 'Courier Prime', 'Courier New', monospace;
        font-weight: 700;
        letter-spacing: 4px;
        fill: #a0a0a0;
      }
      .line {
        stroke: #2c2c2c;
        stroke-width: 1.5;
        opacity: 0.85;
      }
    </style>

    <!-- Noise / Grain Filter for Matte Physical Panel Finish -->
    <filter id="grain" x="0%" y="0%" width="100%" height="100%">
      <feTurbulence type="fractalNoise" baseFrequency="0.75" numOctaves="3" stitchTiles="stitch" result="noise"/>
      <feColorMatrix type="saturate" values="0" result="desaturated"/>
      <feComponentTransfer in="desaturated" result="alphaNoise">
        <feFuncA type="linear" slope="0.045"/>
      </feComponentTransfer>
      <feBlend mode="screen" in="SourceGraphic" in2="alphaNoise"/>
    </filter>

    <!-- Drop Shadows and Glows -->
    <filter id="knobShadow" x="-30%" y="-30%" width="160%" height="160%">
      <feDropShadow dx="0" dy="8" stdDeviation="6" flood-color="#000" flood-opacity="0.85" />
    </filter>

    <filter id="whiteGlow" x="-35%" y="-35%" width="170%" height="170%">
      <feDropShadow dx="0" dy="0" stdDeviation="3.5" flood-color="#ffffff" flood-opacity="0.5" />
    </filter>

    <filter id="ledGlow" x="-250%" y="-250%" width="600%" height="600%">
      <feGaussianBlur stdDeviation="6" result="blur1" />
      <feGaussianBlur stdDeviation="12" result="blur2" />
      <feMerge>
        <feMergeNode in="blur2" />
        <feMergeNode in="blur1" />
        <feMergeNode in="SourceGraphic" />
      </feMerge>
    </filter>

    <!-- Pointer Soft Shadow Filter (Blurred & Offset for 3D raised effect) -->
    <filter id="pointerShadow" x="-40%" y="-40%" width="180%" height="180%">
      <feDropShadow dx="1" dy="1.8" stdDeviation="1.2" flood-color="#000000" flood-opacity="0.7" />
    </filter>

    <!-- Knob Well & Bevel Gradients (3D Lighting based on user close-up) -->
    <linearGradient id="knobWellStroke" x1="0" y1="0" x2="1" y2="1">
      <stop offset="0%" stop-color="#121314" />
      <stop offset="100%" stop-color="#343638" />
    </linearGradient>

    <linearGradient id="knobWellGradient" x1="0" y1="0" x2="1" y2="1">
      <stop offset="0%" stop-color="#050506" />
      <stop offset="100%" stop-color="#26282a" />
    </linearGradient>

    <!-- New Chamfer Bevel Gradient matching the user's close-up -->
    <linearGradient id="knobBevelNew" x1="0" y1="0" x2="1" y2="1">
      <stop offset="0%" stop-color="#5c5e61" />
      <stop offset="45%" stop-color="#2c2e30" />
      <stop offset="100%" stop-color="#0e0f10" />
    </linearGradient>

    <!-- Recessed Face Gradient matching the user's close-up (Sunken look) -->
    <linearGradient id="knobInnerFace" x1="0" y1="0" x2="1" y2="1">
      <stop offset="0%" stop-color="#121314" />
      <stop offset="45%" stop-color="#1d1e20" />
      <stop offset="100%" stop-color="#343638" />
    </linearGradient>

    <!-- Button & LED Gradients -->
    <linearGradient id="panelBg" x1="0" y1="0" x2="0" y2="1">
      <stop offset="0%" stop-color="#222222" />
      <stop offset="100%" stop-color="#1c1c1c" />
    </linearGradient>

    <linearGradient id="sideBg" x1="0" y1="0" x2="0" y2="1">
      <stop offset="0%" stop-color="#161616" />
      <stop offset="100%" stop-color="#0f0f0f" />
    </linearGradient>

    <linearGradient id="btnGrad" x1="0" y1="0" x2="0" y2="1">
      <stop offset="0%" stop-color="#2e2e2e" />
      <stop offset="100%" stop-color="#161616" />
    </linearGradient>

    <radialGradient id="ledLitGrad" cx="35%" cy="35%" r="65%">
      <stop offset="0%" stop-color="#ffa3a3" />
      <stop offset="35%" stop-color="#ff2626" />
      <stop offset="75%" stop-color="#b00404" />
      <stop offset="100%" stop-color="#500000" />
    </radialGradient>

    <!-- Reusable Photorealistic 3D Knobs (All pointing straight up at 12:00, with shadow & grain) -->
    <g id="knobLarge">
      <!-- Outer Recess Well with Lip Stroke -->
      <circle cx="0" cy="0" r="85" fill="url(#knobWellGradient)" stroke="url(#knobWellStroke)" stroke-width="1.5"/>
      <!-- Soft Shadow (Offset to bottom-right behind the knob) -->
      <circle cx="2.5" cy="4.5" r="72" fill="#000000" opacity="0.8" filter="url(#knobShadow)"/>
      <!-- Knob Body (Chamfer & Inner Face) with Grain Texture -->
      <g filter="url(#grain)">
        <circle cx="0" cy="0" r="72" fill="url(#knobBevelNew)" stroke="#101112" stroke-width="1"/>
        <circle cx="0" cy="0" r="58" fill="url(#knobInnerFace)" stroke="#101112" stroke-width="0.5"/>
      </g>
      <!-- Pointer Line (Off-white matte strip with blurred shadow) -->
      <rect x="-4" y="-51" width="8" height="34" rx="1.5" ry="1.5" fill="#e2e4e6" filter="url(#pointerShadow)"/>
    </g>

    <g id="knobMed">
      <!-- Outer Recess Well with Lip Stroke -->
      <circle cx="0" cy="0" r="66" fill="url(#knobWellGradient)" stroke="url(#knobWellStroke)" stroke-width="1.2"/>
      <!-- Soft Shadow (Offset to bottom-right behind the knob) -->
      <circle cx="2" cy="3.5" r="56" fill="#000000" opacity="0.8" filter="url(#knobShadow)"/>
      <!-- Knob Body (Chamfer & Inner Face) with Grain Texture -->
      <g filter="url(#grain)">
        <circle cx="0" cy="0" r="56" fill="url(#knobBevelNew)" stroke="#101112" stroke-width="1"/>
        <circle cx="0" cy="0" r="45" fill="url(#knobInnerFace)" stroke="#101112" stroke-width="0.5"/>
      </g>
      <!-- Pointer Line -->
      <rect x="-3" y="-39" width="6" height="26" rx="1.2" ry="1.2" fill="#e2e4e6" filter="url(#pointerShadow)"/>
    </g>

    <g id="knobSmall">
      <!-- Outer Recess Well with Lip Stroke -->
      <circle cx="0" cy="0" r="38" fill="url(#knobWellGradient)" stroke="url(#knobWellStroke)" stroke-width="1"/>
      <!-- Soft Shadow (Offset to bottom-right behind the knob) -->
      <circle cx="1.2" cy="2.2" r="32" fill="#000000" opacity="0.8" filter="url(#knobShadow)"/>
      <!-- Knob Body (Chamfer & Inner Face) with Grain Texture -->
      <g filter="url(#grain)">
        <circle cx="0" cy="0" r="32" fill="url(#knobBevelNew)" stroke="#101112" stroke-width="0.8"/>
        <circle cx="0" cy="0" r="25" fill="url(#knobInnerFace)" stroke="#101112" stroke-width="0.5"/>
      </g>
      <!-- Pointer Line -->
      <rect x="-2" y="-21" width="4" height="15" rx="0.8" ry="0.8" fill="#e2e4e6" filter="url(#pointerShadow)"/>
    </g>

    <!-- Reusable Lit LED Dot -->
    <g id="ledLit">
      <circle cx="0" cy="0" r="8" fill="#ff2626" opacity="0.4" filter="url(#ledGlow)"/>
      <circle cx="0" cy="0" r="5.5" fill="url(#ledLitGrad)"/>
      <circle cx="-1.5" cy="-1.5" r="1.2" fill="#ffffff" opacity="0.85"/>
    </g>

    <!-- Reusable Q-factor Row (with 1.0 active) -->
    <g id="ratioRow">
      <!-- 0.4 -->
      <rect x="0" y="0" width="42" height="40" rx="3" ry="3" fill="url(#btnGrad)" stroke="#121213" stroke-width="1.5"/>
      <text x="21" y="25" class="tiny" font-size="14" text-anchor="middle" fill="#7c7c7c">0.4</text>
      <!-- 0.7 -->
      <rect x="54" y="0" width="42" height="40" rx="3" ry="3" fill="url(#btnGrad)" stroke="#121213" stroke-width="1.5"/>
      <text x="75" y="25" class="tiny" font-size="14" text-anchor="middle" fill="#7c7c7c">0.7</text>
      <!-- 1.0 (Active Highlighted) -->
      <rect x="108" y="0" width="42" height="40" rx="3" ry="3" fill="url(#btnGrad)" stroke="#ffffff" stroke-width="1.5" filter="url(#whiteGlow)"/>
      <text x="129" y="25" class="tiny" font-size="14" text-anchor="middle" fill="#ffffff">1.0</text>
      <!-- 1.5 -->
      <rect x="162" y="0" width="42" height="40" rx="3" ry="3" fill="url(#btnGrad)" stroke="#121213" stroke-width="1.5"/>
      <text x="183" y="25" class="tiny" font-size="14" text-anchor="middle" fill="#7c7c7c">1.5</text>
      <!-- 2.5 -->
      <rect x="216" y="0" width="42" height="40" rx="3" ry="3" fill="url(#btnGrad)" stroke="#121213" stroke-width="1.5"/>
      <text x="237" y="25" class="tiny" font-size="14" text-anchor="middle" fill="#7c7c7c">2.5</text>
    </g>
  </defs>

  <!-- Core Faceplate Background -->
  <rect width="2048" height="1040" fill="#09090a" />

  <!-- ==================== MAIN HEADER ==================== -->
  <rect x="0" y="0" width="2048" height="96" fill="#080809" />
  <line x1="0" y1="95" x2="2048" y2="95" stroke="#1c1c1e" stroke-width="1.5" />

  <!-- Logo and Subtitle -->
  <text x="30" y="56" class="mono" font-size="28">BORATO EQ</text>
  <text x="350" y="56" class="dim" font-size="16" letter-spacing="5">PARALLEL TUBE EQ</text>

  <!-- Preset Navigator -->
  <g transform="translate(712, 25)">
    <!-- Prev button -->
    <rect x="0" y="0" width="49" height="46" rx="3" ry="3" fill="url(#btnGrad)" stroke="#1c1c1e" stroke-width="1.5"/>
    <text x="24.5" y="29" class="label" font-size="20" text-anchor="middle">&lt;</text>
    <!-- Text Display -->
    <rect x="59" y="0" width="742" height="46" rx="3" ry="3" fill="#121213" stroke="#1e1e20" stroke-width="1.5"/>
    <text x="430" y="28" class="label" font-size="16" text-anchor="middle" letter-spacing="3">Default</text>
    <!-- Next button -->
    <rect x="811" y="0" width="49" height="46" rx="3" ry="3" fill="url(#btnGrad)" stroke="#1c1c1e" stroke-width="1.5"/>
    <text x="835.5" y="29" class="label" font-size="20" text-anchor="middle">&gt;</text>
  </g>

  <!-- A/B Controls -->
  <g transform="translate(1679, 25)">
    <!-- A button (Active) -->
    <rect x="0" y="0" width="49" height="46" rx="3" ry="3" fill="url(#btnGrad)" stroke="#ffffff" stroke-width="1.5" filter="url(#whiteGlow)"/>
    <text x="24.5" y="28" class="label" font-size="16" text-anchor="middle" fill="#ffffff">A</text>
    <!-- B button -->
    <rect x="49" y="0" width="49" height="46" rx="3" ry="3" fill="url(#btnGrad)" stroke="#1c1c1e" stroke-width="1.5"/>
    <text x="73.5" y="28" class="label" font-size="16" text-anchor="middle" fill="#7c7c7c">B</text>
    <!-- A > B button -->
    <rect x="115" y="0" width="80" height="46" rx="3" ry="3" fill="url(#btnGrad)" stroke="#1c1c1e" stroke-width="1.5"/>
    <text x="155" y="28" class="label" font-size="14" text-anchor="middle" fill="#7c7c7c">A &gt; B</text>
  </g>

  <!-- Settings Gear Icon -->
  <g transform="translate(1978, 25)">
    <rect width="45" height="46" rx="3" ry="3" fill="url(#btnGrad)" stroke="#1c1c1e" stroke-width="1.5"/>
    <g transform="translate(22.5,23)" fill="#8e8e8e">
      <circle r="10"/>
      <g stroke="#8e8e8e" stroke-width="5" stroke-linecap="square">
        <line x1="0" y1="-17" x2="0" y2="-11"/>
        <line x1="0" y1="11" x2="0" y2="17"/>
        <line x1="-17" y1="0" x2="-11" y2="0"/>
        <line x1="11" y1="0" x2="17" y2="0"/>
        <line x1="12" y1="-12" x2="8" y2="-8"/>
        <line x1="-12" y1="12" x2="-8" y2="8"/>
        <line x1="-12" y1="-12" x2="-8" y2="-8"/>
        <line x1="12" y1="12" x2="8" y2="8"/>
      </g>
      <circle r="4.5" fill="#181819"/>
    </g>
  </g>

  <!-- ==================== LEFT FILTER PANEL ==================== -->
  <g transform="translate(0, 96)">
    <!-- Panel Background -->
    <rect width="207" height="944" fill="url(#sideBg)" filter="url(#grain)"/>
    <line x1="207" y1="0" x2="207" y2="944" stroke="#121213" stroke-width="2" />
    <line x1="208" y1="0" x2="208" y2="944" stroke="#2a2b2d" stroke-width="1" opacity="0.6"/>

    <text x="34" y="36" class="dim" font-size="16">FILTERS</text>

    <!-- Low Pass Filter (LPF) Knob -->
    <g transform="translate(103, 230)">
      <!-- Knob rotated to 135 deg (fully clockwise / OFF) -->
      <g transform="rotate(135)"><use href="#knobSmall"/></g>
      <text x="0" y="88" class="label" font-size="16" text-anchor="middle">OFF</text>
      <text x="0" y="112" class="dim" font-size="11" text-anchor="middle" letter-spacing="4">LPF</text>
    </g>

    <!-- Separator Line -->
    <line x1="15" y1="476" x2="192" y2="476" stroke="#252528" stroke-width="1.5" />

    <!-- High Pass Filter (HPF) Knob -->
    <g transform="translate(103, 654)">
      <!-- Knob rotated to -135 deg (fully counter-clockwise / OFF) -->
      <g transform="rotate(-135)"><use href="#knobSmall"/></g>
      <text x="0" y="83" class="label" font-size="16" text-anchor="middle">OFF</text>
      <text x="0" y="109" class="dim" font-size="11" text-anchor="middle" letter-spacing="4">HPF</text>
    </g>
  </g>

  <!-- ==================== EQ CHANNELS (1 - 5) ==================== -->
  
  <!-- COLUMN 1 (100Hz) -->
  <g id="col1" transform="translate(209, 96)">
    <rect width="293" height="944" fill="url(#panelBg)" filter="url(#grain)" />
    <!-- Top red status LED -->
    <g transform="translate(146.5, 38)"><use href="#ledLit"/></g>
    <!-- Label -->
    <text x="146.5" y="116" class="label" font-size="21" text-anchor="middle">100Hz</text>
    <!-- FREQ Knob rotated to 30 deg -->
    <g transform="translate(146.5, 260) rotate(30)"><use href="#knobLarge"/></g>
    <text x="146.5" y="413" class="dim" font-size="12" text-anchor="middle" letter-spacing="4">FREQ</text>
    <!-- Value & GAIN Knob -->
    <text x="146.5" y="505" class="label" font-size="18" text-anchor="middle">+0.00 dB</text>
    <g transform="translate(146.5, 628) rotate(0)"><use href="#knobMed"/></g>
    <text x="146.5" y="743" class="dim" font-size="12" text-anchor="middle" letter-spacing="4">GAIN</text>
    <!-- Q factor buttons -->
    <g transform="translate(16.5, 787)"><use href="#ratioRow"/></g>
    <!-- Shape buttons (Low Shelf active, Peak inactive) -->
    <!-- Low Shelf Button (Active) -->
    <g transform="translate(26, 863)">
      <rect width="112" height="42" rx="3" ry="3" fill="url(#btnGrad)" stroke="#ffffff" stroke-width="1.5" filter="url(#whiteGlow)"/>
      <path d="M 36,20 L 52,20 C 59,20 59,28 66,28 L 82,28" fill="none" stroke="#ffffff" stroke-width="2.5" stroke-linecap="round"/>
    </g>
    <!-- Peak Button (Inactive) -->
    <g transform="translate(155, 863)">
      <rect width="112" height="42" rx="3" ry="3" fill="url(#btnGrad)" stroke="#121213" stroke-width="1.5"/>
      <path d="M 36,26 C 48,26 50,16 59,16 C 68,16 70,26 82,26" fill="none" stroke="#7c7c7c" stroke-width="2" stroke-linecap="round"/>
    </g>
    <!-- Divider -->
    <line x1="293" y1="0" x2="293" y2="944" stroke="#121213" stroke-width="2" />
    <line x1="294" y1="0" x2="294" y2="944" stroke="#2a2b2d" stroke-width="1" opacity="0.6"/>
  </g>

  <!-- COLUMN 2 (300Hz) -->
  <g id="col2" transform="translate(504, 96)">
    <rect width="293" height="944" fill="url(#panelBg)" filter="url(#grain)" />
    <!-- Top red status LED -->
    <g transform="translate(146.5, 38)"><use href="#ledLit"/></g>
    <!-- Label -->
    <text x="146.5" y="116" class="label" font-size="21" text-anchor="middle">300Hz</text>
    <!-- FREQ Knob rotated to -75 deg -->
    <g transform="translate(146.5, 260) rotate(-75)"><use href="#knobLarge"/></g>
    <text x="146.5" y="413" class="dim" font-size="12" text-anchor="middle" letter-spacing="4">FREQ</text>
    <!-- Value & GAIN Knob -->
    <text x="146.5" y="505" class="label" font-size="18" text-anchor="middle">+0.00 dB</text>
    <g transform="translate(146.5, 628) rotate(0)"><use href="#knobMed"/></g>
    <text x="146.5" y="743" class="dim" font-size="12" text-anchor="middle" letter-spacing="4">GAIN</text>
    <!-- Q factor buttons -->
    <g transform="translate(16.5, 787)"><use href="#ratioRow"/></g>
    <!-- Shape buttons (Low Shelf inactive, Peak active) -->
    <!-- Low Shelf Button (Inactive) -->
    <g transform="translate(26, 863)">
      <rect width="112" height="42" rx="3" ry="3" fill="url(#btnGrad)" stroke="#121213" stroke-width="1.5"/>
      <path d="M 36,20 L 52,20 C 59,20 59,28 66,28 L 82,28" fill="none" stroke="#7c7c7c" stroke-width="2" stroke-linecap="round"/>
    </g>
    <!-- Peak Button (Active) -->
    <g transform="translate(155, 863)">
      <rect width="112" height="42" rx="3" ry="3" fill="url(#btnGrad)" stroke="#ffffff" stroke-width="1.5" filter="url(#whiteGlow)"/>
      <path d="M 36,26 C 48,26 50,16 59,16 C 68,16 70,26 82,26" fill="none" stroke="#ffffff" stroke-width="2.5" stroke-linecap="round"/>
    </g>
    <!-- Divider -->
    <line x1="293" y1="0" x2="293" y2="944" stroke="#121213" stroke-width="2" />
    <line x1="294" y1="0" x2="294" y2="944" stroke="#2a2b2d" stroke-width="1" opacity="0.6"/>
  </g>

  <!-- COLUMN 3 (1kHz) -->
  <g id="col3" transform="translate(799, 96)">
    <rect width="293" height="944" fill="url(#panelBg)" filter="url(#grain)" />
    <!-- Top red status LED -->
    <g transform="translate(146.5, 38)"><use href="#ledLit"/></g>
    <!-- Label -->
    <text x="146.5" y="116" class="label" font-size="21" text-anchor="middle">1kHz</text>
    <!-- FREQ Knob rotated to 0 deg -->
    <g transform="translate(146.5, 260) rotate(0)"><use href="#knobLarge"/></g>
    <text x="146.5" y="413" class="dim" font-size="12" text-anchor="middle" letter-spacing="4">FREQ</text>
    <!-- Value & GAIN Knob -->
    <text x="146.5" y="505" class="label" font-size="18" text-anchor="middle">+0.00 dB</text>
    <g transform="translate(146.5, 628) rotate(0)"><use href="#knobMed"/></g>
    <text x="146.5" y="743" class="dim" font-size="12" text-anchor="middle" letter-spacing="4">GAIN</text>
    <!-- Q factor buttons -->
    <g transform="translate(16.5, 787)"><use href="#ratioRow"/></g>
    <!-- Shape buttons (Empty) -->
    <!-- Divider -->
    <line x1="293" y1="0" x2="293" y2="944" stroke="#121213" stroke-width="2" />
    <line x1="294" y1="0" x2="294" y2="944" stroke="#2a2b2d" stroke-width="1" opacity="0.6"/>
  </g>

  <!-- COLUMN 4 (4kHz) -->
  <g id="col4" transform="translate(1094, 96)">
    <rect width="293" height="944" fill="url(#panelBg)" filter="url(#grain)" />
    <!-- Top red status LED -->
    <g transform="translate(146.5, 38)"><use href="#ledLit"/></g>
    <!-- Label -->
    <text x="146.5" y="116" class="label" font-size="21" text-anchor="middle">4kHz</text>
    <!-- FREQ Knob rotated to 105 deg -->
    <g transform="translate(146.5, 260) rotate(105)"><use href="#knobLarge"/></g>
    <text x="146.5" y="413" class="dim" font-size="12" text-anchor="middle" letter-spacing="4">FREQ</text>
    <!-- Value & GAIN Knob -->
    <text x="146.5" y="505" class="label" font-size="18" text-anchor="middle">+0.00 dB</text>
    <g transform="translate(146.5, 628) rotate(0)"><use href="#knobMed"/></g>
    <text x="146.5" y="743" class="dim" font-size="12" text-anchor="middle" letter-spacing="4">GAIN</text>
    <!-- Q factor buttons -->
    <g transform="translate(16.5, 787)"><use href="#ratioRow"/></g>
    <!-- Shape buttons (Peak active, High Shelf inactive) -->
    <!-- Peak Button (Active) -->
    <g transform="translate(26, 863)">
      <rect width="112" height="42" rx="3" ry="3" fill="url(#btnGrad)" stroke="#ffffff" stroke-width="1.5" filter="url(#whiteGlow)"/>
      <path d="M 36,26 C 48,26 50,16 59,16 C 68,16 70,26 82,26" fill="none" stroke="#ffffff" stroke-width="2.5" stroke-linecap="round"/>
    </g>
    <!-- High Shelf Button (Inactive) -->
    <g transform="translate(155, 863)">
      <rect width="112" height="42" rx="3" ry="3" fill="url(#btnGrad)" stroke="#121213" stroke-width="1.5"/>
      <path d="M 36,28 L 52,28 C 59,28 59,20 66,20 L 82,20" fill="none" stroke="#7c7c7c" stroke-width="2" stroke-linecap="round"/>
    </g>
    <!-- Divider -->
    <line x1="293" y1="0" x2="293" y2="944" stroke="#121213" stroke-width="2" />
    <line x1="294" y1="0" x2="294" y2="944" stroke="#2a2b2d" stroke-width="1" opacity="0.6"/>
  </g>

  <!-- COLUMN 5 (10kHz) -->
  <g id="col5" transform="translate(1389, 96)">
    <rect width="291" height="944" fill="url(#panelBg)" filter="url(#grain)" />
    <!-- Top red status LED -->
    <g transform="translate(145.5, 38)"><use href="#ledLit"/></g>
    <!-- Label -->
    <text x="145.5" y="116" class="label" font-size="21" text-anchor="middle">10kHz</text>
    <!-- FREQ Knob rotated to 45 deg -->
    <g transform="translate(145.5, 260) rotate(45)"><use href="#knobLarge"/></g>
    <text x="145.5" y="413" class="dim" font-size="12" text-anchor="middle" letter-spacing="4">FREQ</text>
    <!-- Value & GAIN Knob -->
    <text x="145.5" y="505" class="label" font-size="18" text-anchor="middle">+0.00 dB</text>
    <g transform="translate(145.5, 628) rotate(0)"><use href="#knobMed"/></g>
    <text x="145.5" y="743" class="dim" font-size="12" text-anchor="middle" letter-spacing="4">GAIN</text>
    <!-- Q factor buttons -->
    <g transform="translate(15.5, 787)"><use href="#ratioRow"/></g>
    <!-- Shape buttons (Peak inactive, High Shelf active) -->
    <!-- Peak Button (Inactive) -->
    <g transform="translate(25, 863)">
      <rect width="112" height="42" rx="3" ry="3" fill="url(#btnGrad)" stroke="#121213" stroke-width="1.5"/>
      <path d="M 36,26 C 48,26 50,16 59,16 C 68,16 70,26 82,26" fill="none" stroke="#7c7c7c" stroke-width="2" stroke-linecap="round"/>
    </g>
    <!-- High Shelf Button (Active) -->
    <g transform="translate(154, 863)">
      <rect width="112" height="42" rx="3" ry="3" fill="url(#btnGrad)" stroke="#ffffff" stroke-width="1.5" filter="url(#whiteGlow)"/>
      <path d="M 36,28 L 52,28 C 59,28 59,20 66,20 L 82,20" fill="none" stroke="#ffffff" stroke-width="2.5" stroke-linecap="round"/>
    </g>
    <!-- Divider -->
    <line x1="291" y1="0" x2="291" y2="944" stroke="#121213" stroke-width="2" />
    <line x1="292" y1="0" x2="292" y2="944" stroke="#2a2b2d" stroke-width="1" opacity="0.6"/>
  </g>

  <!-- ==================== RIGHT CONTROL PANEL ==================== -->
  <g transform="translate(1680, 96)">
    <!-- Panel Background -->
    <rect width="368" height="944" fill="url(#sideBg)" filter="url(#grain)"/>

    <text x="28" y="36" class="dim" font-size="16">GAIN STAGING</text>

    <!-- Input Gain Knob -->
    <g transform="translate(107, 128)">
      <g transform="rotate(0)"><use href="#knobSmall"/></g>
      <text x="0" y="87" class="label" font-size="16" text-anchor="middle">+0.0 dB</text>
      <text x="0" y="113" class="dim" font-size="11" text-anchor="middle" letter-spacing="4">INPUT</text>
    </g>

    <!-- Link Button -->
    <g transform="translate(208, 203)">
      <rect width="111" height="43" rx="3" ry="3" fill="url(#btnGrad)" stroke="#121213" stroke-width="1.5" />
      <text x="55.5" y="26" class="tiny" font-size="13" text-anchor="middle" fill="#7c7c7c" letter-spacing="3">LINK</text>
    </g>

    <!-- Output Gain Knob -->
    <g transform="translate(107, 321)">
      <g transform="rotate(0)"><use href="#knobSmall"/></g>
      <text x="0" y="86" class="label" font-size="16" text-anchor="middle">+0.0 dB</text>
      <text x="0" y="110" class="dim" font-size="11" text-anchor="middle" letter-spacing="4">OUTPUT</text>
    </g>

    <!-- Divider -->
    <line x1="0" y1="454" x2="368" y2="454" stroke="#252528" stroke-width="1.5" />

    <text x="28" y="493" class="dim" font-size="16">CHARACTER</text>

    <!-- TUBE and IRON buttons -->
    <g transform="translate(56, 532)">
      <!-- TUBE Button (Active) -->
      <g transform="translate(0, 0)">
        <rect width="105" height="39" rx="3" ry="3" fill="url(#btnGrad)" stroke="#ffffff" stroke-width="1.5" filter="url(#whiteGlow)"/>
        <text x="52.5" y="24" class="label" font-size="14" text-anchor="middle" fill="#ffffff" letter-spacing="3">TUBE</text>
      </g>
      <!-- IRON Button (Inactive) -->
      <g transform="translate(156, 0)">
        <rect width="105" height="39" rx="3" ry="3" fill="url(#btnGrad)" stroke="#121213" stroke-width="1.5"/>
        <text x="52.5" y="24" class="label" font-size="14" text-anchor="middle" fill="#7c7c7c" letter-spacing="3">IRON</text>
      </g>
    </g>

    <!-- Color and Voicing Knobs -->
    <!-- COLOR (rotated to -135 deg / fully counter-clockwise) -->
    <g transform="translate(107, 648)">
      <g transform="rotate(-135)"><use href="#knobSmall"/></g>
      <text x="0" y="78" class="label" font-size="16" text-anchor="middle">0</text>
      <text x="0" y="101" class="dim" font-size="11" text-anchor="middle" letter-spacing="4">COLOR</text>
    </g>

    <!-- VOICING (rotated to -135 deg / fully counter-clockwise) -->
    <g transform="translate(265, 648)">
      <g transform="rotate(-135)"><use href="#knobSmall"/></g>
      <text x="0" y="78" class="label" font-size="16" text-anchor="middle">0</text>
      <text x="0" y="101" class="dim" font-size="11" text-anchor="middle" letter-spacing="4">VOICING</text>
    </g>

    <!-- Divider -->
    <line x1="0" y1="760" x2="368" y2="760" stroke="#252528" stroke-width="1.5" />

    <!-- Branding Signature -->
    <text x="184" y="812" class="mono" font-size="24" text-anchor="middle">BORATO</text>
    <text x="184" y="841" class="dim" font-size="13" letter-spacing="6" text-anchor="middle">COMPANY</text>

    <!-- Version, Power & Status -->
    <text x="29" y="916" class="dim" font-size="13" letter-spacing="2">v1.0.8</text>
    
    <text x="310" y="916" class="dim" font-size="14" letter-spacing="4" text-anchor="end">POWER</text>
    <!-- Power LED -->
    <g transform="translate(334, 910)"><use href="#ledLit"/></g>


  </g>

  <!-- Overlay Border of the Plugin -->
  <rect x="0" y="0" width="2048" height="1040" fill="none" stroke="#2c2c2e" stroke-width="2" />
</svg>
